<svg preserveAspectRatio="none" overflow="visible" style="display: block;" width="30" height="30" viewBox="0 0 30 30" fill="none" xmlns="http://www.w3.org/2000/svg">
<g id="ri:temp-hot-line">
<path id="Vector" d="M10 6.25C10 4.92392 10.5268 3.65215 11.4645 2.71447C12.4021 1.77678 13.6739 1.25 15 1.25C16.3261 1.25 17.5979 1.77678 18.5355 2.71447C19.4732 3.65215 20 4.92392 20 6.25V12.8188C21.5287 13.8832 22.6778 15.4078 23.2801 17.1706C23.8823 18.9334 23.9063 20.8424 23.3485 22.6197C22.7906 24.397 21.6801 25.95 20.1786 27.0525C18.677 28.1549 16.8628 28.7495 15 28.7495C13.1372 28.7495 11.323 28.1549 9.82142 27.0525C8.31988 25.95 7.20937 24.397 6.65154 22.6197C6.0937 20.8424 6.11765 18.9334 6.7199 17.1706C7.32215 15.4078 8.47127 13.8832 10 12.8188V6.25ZM11.43 14.8688C10.3377 15.6289 9.51656 16.7178 9.08607 17.977C8.65558 19.2361 8.63823 20.5999 9.03655 21.8696C9.43487 23.1393 10.2281 24.2488 11.3007 25.0364C12.3733 25.8241 13.6693 26.2488 15 26.2488C16.3307 26.2488 17.6267 25.8241 18.6993 25.0364C19.7719 24.2488 20.5651 23.1393 20.9634 21.8696C21.3618 20.5999 21.3444 19.2361 20.9139 17.977C20.4834 16.7178 19.6623 15.6289 18.57 14.8688L17.5 14.1225V6.25C17.5 5.58696 17.2366 4.95107 16.7678 4.48223C16.2989 4.01339 15.663 3.75 15 3.75C14.337 3.75 13.7011 4.01339 13.2322 4.48223C12.7634 4.95107 12.5 5.58696 12.5 6.25V14.1225L11.43 14.8688ZM13.75 15.1575V6.25H16.25V15.1575C17.4256 15.4647 18.4492 16.1892 19.1297 17.1958C19.8103 18.2025 20.1011 19.4224 19.948 20.6278C19.795 21.8332 19.2084 22.9416 18.2979 23.7462C17.3873 24.5508 16.2151 24.9965 15 25C13.7822 25.0012 12.6058 24.5579 11.6916 23.7533C10.7774 22.9487 10.1883 21.8381 10.0349 20.6299C9.88147 19.4218 10.1742 18.1992 10.8583 17.1916C11.5423 16.1841 12.5705 15.4608 13.75 15.1575Z" fill="#1863DA"/>
</g>
</svg>
