<svg preserveAspectRatio="none" overflow="visible" style="display: block;" width="31.9217" height="28" viewBox="0 0 31.9217 28" fill="none" xmlns="http://www.w3.org/2000/svg">
<g id="Group 2087331503">
<g id="Tuktuk">
<path id="Vector" d="M13.3549 11.607V18.4652H12.7963L8.36712 13.311V11.607H13.3549Z" fill="#1863DA"/>
<path id="Vector_2" d="M28.6965 10.0228H23.3296V3.16453H25.8235C27.2001 4.98988 28.1079 7.50633 28.6965 10.0228Z" fill="#1863DA"/>
<path id="Vector_3" d="M26.8211 16.8818C27.9034 16.8818 28.911 17.2141 29.7589 17.7839C29.7339 17.3671 29.704 16.8818 29.6591 16.3542V15.6643C29.315 15.015 29.315 15.5316 29.315 14.3657V12.7425C29.2551 12.389 29.0007 11.4374 28.9259 11.0787H23.3296V18.2059C24.2823 17.3777 25.4943 16.8818 26.8211 16.8818Z" fill="#1863DA"/>
<path id="Vector_4" d="M22.2228 19.5198C21.6592 20.4325 21.335 21.514 21.335 22.6852V23.2127H10.3618C10.3618 19.7203 7.67834 16.882 4.37641 16.882C3.0746 16.882 1.86755 17.3199 0.884949 18.0743V13.7167H7.3691L12.3569 19.5198H22.2228Z" fill="#1863DA"/>
<path id="Vector_5" d="M0.884949 13.7165V6.33068C0.884949 2.83456 3.5649 0 6.87032 0H24.8264C26.4794 0 27.8191 1.41702 27.8191 3.16534H8.86544C8.03896 3.16534 7.3691 3.87385 7.3691 4.74801V13.7165H0.884949Z" fill="#1863DA"/>
<path id="Vector_6" d="M14.3514 3.16453H16.3465V19.5188H14.3514V3.16453Z" fill="#1863DA"/>
<path id="Vector_7" d="M19.8374 15.2994V11.6065C19.8374 10.7323 19.1675 10.0238 18.3411 10.0238H17.3435V18.4647H22.3313V16.882C22.3313 16.0079 21.6614 15.2994 20.835 15.2994H19.8374Z" fill="#1863DA"/>
</g>
<ellipse id="Ellipse 8256" cx="4.60413" cy="23.1302" rx="4.60413" ry="4.86975" fill="#1863DA"/>
<ellipse id="Ellipse 8257" cx="27.3176" cy="23.1302" rx="4.60413" ry="4.86975" fill="#1863DA"/>
</g>
</svg>
